<?xml version="1.0" encoding="UTF-8" standalone="no"?><!DOCTYPE svg PUBLIC "-//W3C//DTD SVG 1.1//EN" "http://www.w3.org/Graphics/SVG/1.1/DTD/svg11.dtd"><svg width="100%" height="100%" viewBox="0 0 1280 1280" version="1.1" xmlns="http://www.w3.org/2000/svg" xmlns:xlink="http://www.w3.org/1999/xlink" xml:space="preserve" xmlns:serif="http://www.serif.com/" style="fill-rule:evenodd;clip-rule:evenodd;stroke-linejoin:round;stroke-miterlimit:2;"><rect id="Artboard1" x="0" y="0" width="1280" height="1280" style="fill:none;"/><g id="Black_MD_LOGO"><path d="M1267.5,326.25l0,627.5c0,173.163 -140.587,313.75 -313.75,313.75l-627.5,0c-173.163,0 -313.75,-140.587 -313.75,-313.75l0,-627.5c0,-173.163 140.587,-313.75 313.75,-313.75l627.5,0c173.163,0 313.75,140.587 313.75,313.75Z" style="fill:#c65102;"/><g id="Black_MD_LOGO_2_"><g id="MD_2_"><path d="M475.835,498.807l0,105.677l-50.642,0l-7.73,-14.168l-11.358,-20.896l0,-198.543l41.588,76.308l28.142,51.622Z" style="fill:#f2f2f2;fill-rule:nonzero;"/><path d="M591.213,371.437l-0,197.886l-11.433,20.993l-7.731,14.168l-50.416,0l0,-105.44l28.26,-51.859l41.319,-75.748Z" style="fill:#f2f2f2;fill-rule:nonzero;"/><path d="M1038.29,520.209l0,291.979c0,12.79 -5.242,25.073 -14.566,34.127l-93.328,90.594l-307.008,-0l108.498,-104.74l198.51,-0l0,-311.96c0,-12.79 -5.243,-25.073 -14.566,-34.127l-25.504,-24.762c-9.324,-9.054 -21.973,-14.146 -35.151,-14.146l-140.622,-0l0,290.848l-24.955,45.777l-26.377,48.359l-57.101,104.708l0,-578.929c0,-8.204 6.836,-14.846 15.287,-14.846l234.436,-0c13.177,-0 25.827,5.092 35.15,14.146l132.731,128.845c9.324,9.054 14.566,21.337 14.566,34.127Z" style="fill:#f2f2f2;fill-rule:nonzero;"/><path d="M390.807,357.937l0,232.379l-107.895,0l0,-198.952c0,-26.656 22.264,-48.263 49.717,-48.263l42.88,0c8.462,0 15.298,6.643 15.298,14.836Z" style="fill:#f2f2f2;fill-rule:nonzero;"/><path d="M547.783,648.979l-24.245,44.452l-1.905,3.531l-6.169,11.293l-16.73,30.693l-0.172,0.334l-16.913,-31.027l-5.814,-10.723l-2.239,-4.101l-24.191,-44.452l98.378,0Z" style="fill:#f2f2f2;fill-rule:nonzero;"/><path d="M329.227,813.512l0,123.376l-4.048,-0l-42.267,-77.514l-14.846,-27.226l-0.452,-0.819l-25.902,-47.541l25.902,-47.52l15.287,-28.045l107.895,0l15.287,28.023l25.924,47.563l-25.902,47.542l-0.452,0.818l-14.846,27.227l-42.267,77.513l-4.048,0l0,-123.397c13.287,-3.398 23.122,-15.459 23.122,-29.798c0,-16.974 -13.781,-30.755 -30.754,-30.755c-16.974,0 -30.755,13.781 -30.755,30.755c0,14.339 9.835,26.4 23.122,29.798Z" style="fill:#f2f2f2;fill-rule:nonzero;"/><path d="M406.105,619.319l0,59.266c-5.975,5.792 -9.323,9.043 -15.287,14.846l-107.906,0c-5.975,-5.792 -9.323,-9.044 -15.287,-14.846l0,-59.266c0,-8.193 6.847,-14.846 15.287,-14.846l107.895,0c8.451,0.011 15.298,6.653 15.298,14.846Z" style="fill:#f2f2f2;fill-rule:nonzero;"/></g></g></g></svg>